<svg xmlns="http://www.w3.org/2000/svg" width="13.579" height="13.604" viewBox="0 0 13.579 13.604"><defs><style>.a{fill:none;stroke:#fff;stroke-linecap:round;stroke-linejoin:round;}</style></defs><path class="a" d="M17.858,14.436v1.9A1.265,1.265,0,0,1,16.594,17.6c-.04,0-.08,0-.119-.006h.005a12.485,12.485,0,0,1-5.506-1.971l.048.029A12.441,12.441,0,0,1,7.256,11.91l-.029-.049A12.364,12.364,0,0,1,5.29,6.434l-.005-.056c0-.034-.005-.074-.005-.114A1.265,1.265,0,0,1,6.544,5h1.91A1.265,1.265,0,0,1,9.705,6.08v.007a8.1,8.1,0,0,0,.461,1.833l-.019-.056a1.243,1.243,0,0,1,.081.445,1.261,1.261,0,0,1-.366.889l-.8.8a10.2,10.2,0,0,0,3.746,3.769l.049.026.8-.8A1.267,1.267,0,0,1,15,12.712l-.009,0a7.81,7.81,0,0,0,1.735.438l.042,0A1.267,1.267,0,0,1,17.859,14.4c0,.011,0,.022,0,.033v0Z" transform="translate(-4.78 -4.499)"/></svg>