<svg xmlns="http://www.w3.org/2000/svg" width="40.192" height="40.192" viewBox="0 0 40.192 40.192"><defs><style>.a,.b{fill:#404040;}.b{font-size:1px;font-family:Georgia;}</style></defs><path class="a" d="M0,20.056A20.1,20.1,0,1,1,20.1,40.092,20.1,20.1,0,0,1,0,20.056m.595,0A19.5,19.5,0,1,0,20.156.554H20.1A19.5,19.5,0,0,0,.594,20.056Z" transform="translate(0 0.1)"/><path class="a" d="M18.121,18.676a5.827,5.827,0,0,0,1.665-1.07,6.421,6.421,0,0,0,1.07,2.319,3.686,3.686,0,0,0-1.308.773,4.221,4.221,0,0,0-1.427-2.022M24.9,15.109a5.767,5.767,0,0,0-2.14.3,6.481,6.481,0,0,0-1.189-3.092,6.061,6.061,0,0,1,2.794-.535c1.07.178.595,2.438.595,3.33H24.9ZM25.91,35.086l.654.416h-5.47c.535-.3,1.011-.535,1.07-.773a6.9,6.9,0,0,0,0-3.151,4.043,4.043,0,0,0-2.319-2.021,3.567,3.567,0,0,0-1.07.416l.595.416a4.1,4.1,0,0,0-1.308,1.427,4.935,4.935,0,0,0-1.011-.951,3.686,3.686,0,0,1,1.367-1.427l.3.3a1.784,1.784,0,0,1,.773-.416,14.091,14.091,0,0,0-3.151-.773v1.07a7.491,7.491,0,0,0-3.448.416,6.258,6.258,0,0,1,.059-2.794c.416-1.011,2.676.059,3.627.238a6,6,0,0,0-.178.773,9.988,9.988,0,0,1,2.259-.119A3.686,3.686,0,0,0,17.17,26.94a6.421,6.421,0,0,1-1.724-1.13l-.892.476a6.124,6.124,0,0,0-1.546-3.092,10.226,10.226,0,0,0,2.5-.951,8.428,8.428,0,0,0,.892,3.33,2.319,2.319,0,0,0-.951.3,6.421,6.421,0,0,0,2.022.892,1.962,1.962,0,0,1,0-.892h-.416a4.459,4.459,0,0,1,.059-1.546,2.735,2.735,0,0,1,1.189.119,3.032,3.032,0,0,0-.357,1.486h-.476a1.9,1.9,0,0,0,.238.951,3.27,3.27,0,0,1,1.9,1.486l1.605.416a2.2,2.2,0,0,0-.178-.832l-.416.119A2.973,2.973,0,0,0,19.9,26.7a3.627,3.627,0,0,1,1.189-.416,3.746,3.746,0,0,1,.416,1.486h-.476a4.518,4.518,0,0,1,.357.951l.951.416a5.232,5.232,0,0,0-1.249-3.865l-.951.773C19.845,24.8,18,23.195,18,23.195a8.086,8.086,0,0,0,1.962-1.427,6.057,6.057,0,0,1,2.14,2.794l-.892.476,1.07.892.416.595a2.438,2.438,0,0,0,.595-.713l-.595-.178a4.875,4.875,0,0,0,.773-1.962,3.448,3.448,0,0,0,1.367.535,3.984,3.984,0,0,1-.713,2.022l-.595-.3a2.675,2.675,0,0,1-.595,1.011c.357.773.595,1.665.951,2.5,2.14-1.784,1.546-5.173,1.13-6.719l-1.011.773a7.908,7.908,0,0,0-2.794-2.676,6.324,6.324,0,0,1,2.5-1.9c1.189-.3,1.784,2.319,2.319,3.33l-.773.416a7.491,7.491,0,0,1,1.13,2.676l.951-.773-.416-.178a3.686,3.686,0,0,1,1.367-1.427,3.865,3.865,0,0,0,1.011.892,4.1,4.1,0,0,0-1.308,1.427l-.535-.535a7.551,7.551,0,0,0-1.011,1.843,7.016,7.016,0,0,1-.178,2.2,4.816,4.816,0,0,1,1.962-.595,2.5,2.5,0,0,1,1.249-1.605l-.654-.773a9.462,9.462,0,0,1,2.854-2.2,5.827,5.827,0,0,1,1.605,2.319,7.492,7.492,0,0,0-3.092,1.546l-.535-.773A2.913,2.913,0,0,0,29,28.129a13.972,13.972,0,0,1,2.735.119,3.092,3.092,0,0,0,.059-1.011,6.077,6.077,0,0,1,3.448.773,8.264,8.264,0,0,0-.416,2.438,8.079,8.079,0,0,0-3.448-.713,6.658,6.658,0,0,0,.3-1.13,7.313,7.313,0,0,0-3.686.535l1.189.238a1.189,1.189,0,0,0,.119-.416,3.33,3.33,0,0,1,1.724.951,2.616,2.616,0,0,0-.713,1.13,4.519,4.519,0,0,0-1.724-.892L29,29.5a6.659,6.659,0,0,0-1.605-.059l-.951.654a3.092,3.092,0,0,0-.832,1.249,1.665,1.665,0,0,1,.238.832,1.13,1.13,0,0,1-.595,1.13,2.794,2.794,0,0,0,.654,1.784Zm-.595-3.032a.535.535,0,0,0-.3-.595.651.651,0,0,0-.059,1.13.476.476,0,0,0,.357-.535Zm-.416-1.07c-.416.119-.595.595-.476,1.249a1.249,1.249,0,0,1,.416-1.13c.178-.119.059-.178.059-.178h0ZM21.272,18.438A7.491,7.491,0,0,0,19.013,15.7a6.888,6.888,0,0,1,2.438-1.486c1.07-.238,1.427,2.319,1.724,3.211l-1.011.416a2.081,2.081,0,0,1,0,1.07,4.756,4.756,0,0,0-.238-.951Zm-8.027,6.005a5.854,5.854,0,0,0-.238,2.5A9.394,9.394,0,0,0,9.5,26.524a6.065,6.065,0,0,0,.238-2.5C10.273,24.443,12.413,24.5,13.246,24.443Zm5.41-2.854a5.232,5.232,0,0,0-2.319.773,9.382,9.382,0,0,0-1.665-3.567,10.77,10.77,0,0,0,2.973-1.011,6.493,6.493,0,0,0,.951,3.805Zm8.918-5.232a4.7,4.7,0,0,0-1.784,0,7.4,7.4,0,0,1,.059-3.032,4.816,4.816,0,0,1,2.319.178,5.946,5.946,0,0,0-.595,2.854Zm-9.929.951s-1.011-1.486-1.843-1.784a5.589,5.589,0,0,0,1.189-1.308A4.638,4.638,0,0,1,18.775,16,5.232,5.232,0,0,0,17.645,17.308Zm11.594,4.1A8.1,8.1,0,0,0,31.5,18.676a9.513,9.513,0,0,0,1.843,1.665,6.019,6.019,0,0,1-2.2,2.735,2.616,2.616,0,0,0-.595-.654,4.043,4.043,0,0,0-1.011,1.784,5.351,5.351,0,0,1,.773-1.962Zm5.351,6.124A6.762,6.762,0,0,0,33.7,24.8a9.632,9.632,0,0,0,3.865-1.249,7.67,7.67,0,0,0,.892,2.735,10.458,10.458,0,0,0-3.865,1.249Zm-1.843-5.054A6.538,6.538,0,0,0,35.3,19.627a10.464,10.464,0,0,0,2.14,2.14,9.784,9.784,0,0,0-3.032,2.378,4.7,4.7,0,0,0-1.665-1.665Zm-4.756-4.756a11.368,11.368,0,0,0,1.07-3.33,6.6,6.6,0,0,0,2.378.773,8.859,8.859,0,0,0-1.011,3.27,5.4,5.4,0,0,0-2.378-.773h0Zm-.773,3.567a6.837,6.837,0,0,1-1.011,2.2,6.6,6.6,0,0,0,.595-2.319l-.951-.238a7.382,7.382,0,0,0,.773-3.33,9.037,9.037,0,0,0,2.557.832,5.613,5.613,0,0,0-1.308,3.211Zm-3.508-4.7a4.043,4.043,0,0,0,1.665-.357,7.194,7.194,0,0,0,.476,2.378,4.162,4.162,0,0,0-1.665.357,6.719,6.719,0,0,0-.476-2.378Zm11.356.535a4.638,4.638,0,0,0-1.427,1.784,4.221,4.221,0,0,0-1.308-.595,7.217,7.217,0,0,1,1.07-2.14,4.1,4.1,0,0,1,1.665.892Zm-21.82,4.578A6.7,6.7,0,0,0,11.4,19.627a8.561,8.561,0,0,0,1.427-1.189,4.935,4.935,0,0,1,1.9,1.962,6.064,6.064,0,0,0-1.486,1.308Z" transform="translate(-3.852 -4.704)"/><path class="a" d="M16.5,51.3H37.012v.3H16.5Z" transform="translate(-6.69 -20.74)"/><path class="a" d="M10.81,47.323h-.119A16.767,16.767,0,0,1,5.4,36.621a.178.178,0,0,1,.3-.059,16.529,16.529,0,0,0,5.232,10.464.178.178,0,0,1,0,.238H10.81Z" transform="translate(-2.189 -14.741)"/><path class="a" d="M52.888,47.2h-.119a.178.178,0,0,1,0-.238A16.588,16.588,0,0,0,58,36.436a.178.178,0,1,1,.3.059,17,17,0,0,1-5.292,10.7Z" transform="translate(-21.376 -14.615)"/><text class="b" transform="translate(11.772 32.868)"><tspan x="0" y="0">Est. 2002</tspan></text><text class="b" transform="translate(4.261 20.688) rotate(-91.1)"><tspan x="0" y="0">I</tspan></text><text class="b" transform="translate(4.26 19.458) rotate(-84.3)"><tspan x="0" y="0">N</tspan></text><text class="b" transform="translate(4.495 17.396) rotate(-77.4)"><tspan x="0" y="0">T</tspan></text><text class="b" transform="matrix(0.331, -0.944, 0.944, 0.331, 4.089, 15.399)"><tspan x="0" y="0">E</tspan></text><text class="b" transform="translate(4.738 13.577) rotate(-63.947)"><tspan x="0" y="0">R</tspan></text><text class="b" transform="translate(6.376 12.215) rotate(-57.1)"><tspan x="0" y="0">A</tspan></text><text class="b" transform="matrix(0.639, -0.769, 0.769, 0.639, 6.741, 10.123)"><tspan x="0" y="0">C</tspan></text><text class="b" transform="translate(8.553 9.276) rotate(-44.193)"><tspan x="0" y="0">T</tspan></text><text class="b" transform="matrix(0.783, -0.622, 0.622, 0.783, 9.844, 8.068)"><tspan x="0" y="0">I</tspan></text><text class="b" transform="matrix(0.841, -0.542, 0.542, 0.841, 10.332, 6.62)"><tspan x="0" y="0">O</tspan></text><text class="b" transform="matrix(0.904, -0.427, 0.427, 0.904, 12.494, 6.208)"><tspan x="0" y="0">N</tspan></text><text class="b" transform="translate(15.003 4.238) rotate(-14.452)"><tspan x="0" y="0">D</tspan></text><text class="b" transform="translate(17.094 3.723) rotate(-7.5)"><tspan x="0" y="0">E</tspan></text><text class="b" transform="translate(19.023 4.338) rotate(-1.146)"><tspan x="0" y="0">S</tspan></text><text class="b" transform="translate(20.621 4.32) rotate(3.7)"><tspan x="0" y="0">I</tspan></text><text class="b" transform="translate(21.995 3.549) rotate(9.7)"><tspan x="0" y="0">G</tspan></text><text class="b" transform="translate(23.855 4.73) rotate(17)"><tspan x="0" y="0">N</tspan></text><text class="b" transform="translate(26.623 5.73) rotate(27.3)"><tspan x="0" y="0">F</tspan></text><text class="b" transform="matrix(0.829, 0.559, -0.559, 0.829, 28.623, 5.796)"><tspan x="0" y="0">O</tspan></text><text class="b" transform="matrix(0.75, 0.66, -0.66, 0.75, 29.825, 7.652)"><tspan x="0" y="0">U</tspan></text><text class="b" transform="translate(31.392 9.023) rotate(48.8)"><tspan x="0" y="0">N</tspan></text><text class="b" transform="matrix(0.559, 0.829, -0.829, 0.559, 33.445, 10.142)"><tspan x="0" y="0">D</tspan></text><text class="b" transform="translate(33.867 12.319) rotate(63.3)"><tspan x="0" y="0">A</tspan></text><text class="b" transform="matrix(0.34, 0.94, -0.94, 0.34, 34.668, 14.002)"><tspan x="0" y="0">T</tspan></text><text class="b" transform="matrix(0.254, 0.967, -0.967, 0.254, 35.223, 15.677)"><tspan x="0" y="0">I</tspan></text><text class="b" transform="translate(36.408 16.723) rotate(81.3)"><tspan x="0" y="0">O</tspan></text><text class="b" transform="translate(35.872 18.851) rotate(88.7)"><tspan x="0" y="0">N</tspan></text></svg>