<svg xmlns="http://www.w3.org/2000/svg" xmlns:xlink="http://www.w3.org/1999/xlink" version="1.1" id="Layer_1" x="0px" y="0px" viewBox="0 0 489.994 489.994" style="enable-background:new 0 0 489.994 489.994;" xml:space="preserve">
<g>
	<g>
		<g>
			<path d="M290.934,412.427h-99.53c-4.228,0-7.657,3.428-7.657,7.657c0,4.228,3.428,7.657,7.657,7.657h99.53     c4.228,0,7.656-3.428,7.656-7.657C298.591,415.855,295.162,412.427,290.934,412.427z"/>
            <path d="M290.934,443.553h-99.53c-4.228,0-7.657,3.428-7.657,7.657s3.428,7.657,7.657,7.657h99.53     c4.228,0,7.656-3.428,7.656-7.657S295.162,443.553,290.934,443.553z"/>
            <path d="M264.452,474.68h-46.69c-4.228,0-7.657,3.428-7.657,7.657s3.428,7.657,7.657,7.657h46.69     c4.228,0,7.657-3.428,7.657-7.657S268.68,474.68,264.452,474.68z"/>
            <path d="M244.998,0C161.396,0,93.381,68.015,93.381,151.617c0,30.768,9.238,60.154,26.715,84.981     c15.911,22.602,37.844,40.412,63.652,51.758v38.474h-7.656c-4.228,0-7.657,3.428-7.657,7.657v54.471     c0,4.228,3.428,7.657,7.657,7.657h130.154c4.228,0,7.657-3.428,7.657-7.657v-54.471c0-4.228-3.428-7.657-7.657-7.657h-7.656     v-38.151c27.869-10.395,51.572-27.583,68.792-49.96c19.123-24.85,29.232-54.969,29.232-87.101     C396.614,68.015,328.599,0,244.998,0z M298.59,381.3H183.749v-39.158H298.59V381.3z M355.247,229.379     c-16.427,21.346-39.51,37.476-66.752,46.642c-3.199,1.076-5.21,4.059-5.21,7.256h-0.007v43.552h-15.311V191.404     c0-4.228-3.428-7.657-7.657-7.657c-4.228,0-7.657,3.428-7.657,7.657V326.83h-22.968V191.404c0-4.228-3.428-7.657-7.656-7.657     c-4.228,0-7.657,3.428-7.657,7.657V326.83h-15.311v-43.552h-0.004c-0.001-3.034-1.813-5.906-4.801-7.105     c-25.142-10.089-46.457-26.822-61.639-48.389c-15.651-22.234-23.923-48.571-23.923-76.166     c0-75.159,61.145-136.303,136.303-136.303s136.304,61.143,136.304,136.302C381.301,180.341,372.293,207.23,355.247,229.379z"/>
            <path d="M254.16,45.938c0-4.228-3.428-7.657-7.657-7.657c-37.718,0-73.09,20.189-92.314,52.687     c-2.153,3.639-0.948,8.335,2.691,10.487c1.223,0.724,2.565,1.069,3.891,1.069c2.618,0,5.168-1.343,6.596-3.76     c16.482-27.862,46.806-45.17,79.136-45.17C250.732,53.594,254.16,50.166,254.16,45.938z"/>
            <path d="M151.397,115.045c-4.108-0.968-8.239,1.576-9.211,5.691c-1.903,8.057-2.869,16.378-2.869,24.731     c0,4.228,3.428,7.657,7.657,7.657c4.228,0,7.657-3.428,7.657-7.657c0-7.169,0.826-14.304,2.458-21.211     C158.061,120.142,155.513,116.017,151.397,115.045z"/>
            <path d="M274.655,147.709c-1.436-1.436-3.383-2.243-5.413-2.243c-2.03,0-3.978,0.807-5.413,2.243l-8.622,8.622l-8.622-8.622     c-1.436-1.436-3.383-2.243-5.413-2.243c-2.03,0-3.978,0.807-5.413,2.243l-8.623,8.622l-8.623-8.622     c-1.436-1.436-3.383-2.243-5.413-2.243c-2.03,0-3.978,0.807-5.413,2.243l-14.036,14.037c-2.99,2.99-2.99,7.838,0,10.827     c2.991,2.991,7.838,2.991,10.827,0l8.622-8.623l8.622,8.623c1.436,1.436,3.383,2.243,5.413,2.243c2.03,0,3.978-0.807,5.413-2.243     l8.624-8.623l8.622,8.623c1.436,1.436,3.383,2.243,5.413,2.243c2.03,0,3.978-0.807,5.413-2.243l8.622-8.623l8.624,8.623     c1.494,1.495,3.454,2.243,5.413,2.243s3.919-0.748,5.413-2.243c2.99-2.99,2.99-7.837,0-10.827L274.655,147.709z"/>
		</g>
	</g>
</g>
</svg>